<mxfile host="app.diagrams.net" modified="2024-02-11T13:43:11.222Z" agent="Mozilla/5.0 (Windows NT 10.0; Win64; x64) AppleWebKit/537.36 (KHTML, like Gecko) Chrome/121.0.0.0 Safari/537.36 Edg/121.0.0.0" etag="K-mm7paAJiKbCQcx5_la" version="23.1.2" type="device">
  <diagram name="Seite-1" id="2OeMYHRV2ujG-zIDaVNs">
    <mxGraphModel dx="1242" dy="569" grid="1" gridSize="10" guides="1" tooltips="1" connect="1" arrows="1" fold="1" page="1" pageScale="1" pageWidth="2336" pageHeight="1654" math="0" shadow="0">
      <root>
        <mxCell id="0" />
        <mxCell id="1" parent="0" />
        <mxCell id="axzk1cwQ1PHnHN5oCvma-1" value="kunde" style="rounded=0;whiteSpace=wrap;html=1;" parent="1" vertex="1">
          <mxGeometry x="490" y="105" width="120" height="60" as="geometry" />
        </mxCell>
        <mxCell id="axzk1cwQ1PHnHN5oCvma-3" value="name" style="ellipse;whiteSpace=wrap;html=1;" parent="1" vertex="1">
          <mxGeometry x="730" y="50" width="90" height="40" as="geometry" />
        </mxCell>
        <mxCell id="axzk1cwQ1PHnHN5oCvma-5" value="email" style="ellipse;whiteSpace=wrap;html=1;" parent="1" vertex="1">
          <mxGeometry x="730" y="200" width="90" height="40" as="geometry" />
        </mxCell>
        <mxCell id="axzk1cwQ1PHnHN5oCvma-6" value="kreWuerdigkeit" style="ellipse;whiteSpace=wrap;html=1;" parent="1" vertex="1">
          <mxGeometry x="730" y="250" width="90" height="40" as="geometry" />
        </mxCell>
        <mxCell id="axzk1cwQ1PHnHN5oCvma-7" value="kid" style="ellipse;whiteSpace=wrap;html=1;" parent="1" vertex="1">
          <mxGeometry x="730" width="90" height="40" as="geometry" />
        </mxCell>
        <mxCell id="axzk1cwQ1PHnHN5oCvma-8" value="" style="endArrow=none;html=1;rounded=0;exitX=1;exitY=0.5;exitDx=0;exitDy=0;entryX=0;entryY=0.5;entryDx=0;entryDy=0;" parent="1" source="axzk1cwQ1PHnHN5oCvma-1" target="axzk1cwQ1PHnHN5oCvma-7" edge="1">
          <mxGeometry width="50" height="50" relative="1" as="geometry">
            <mxPoint x="700" y="320" as="sourcePoint" />
            <mxPoint x="750" y="270" as="targetPoint" />
          </mxGeometry>
        </mxCell>
        <mxCell id="axzk1cwQ1PHnHN5oCvma-9" value="" style="endArrow=none;html=1;rounded=0;entryX=0;entryY=0.5;entryDx=0;entryDy=0;exitX=1;exitY=0.5;exitDx=0;exitDy=0;" parent="1" source="axzk1cwQ1PHnHN5oCvma-1" target="axzk1cwQ1PHnHN5oCvma-3" edge="1">
          <mxGeometry width="50" height="50" relative="1" as="geometry">
            <mxPoint x="610" y="120" as="sourcePoint" />
            <mxPoint x="680" y="40" as="targetPoint" />
          </mxGeometry>
        </mxCell>
        <mxCell id="axzk1cwQ1PHnHN5oCvma-10" value="" style="endArrow=none;html=1;rounded=0;entryX=0;entryY=0.5;entryDx=0;entryDy=0;" parent="1" edge="1">
          <mxGeometry width="50" height="50" relative="1" as="geometry">
            <mxPoint x="610" y="135" as="sourcePoint" />
            <mxPoint x="730" y="122.5" as="targetPoint" />
          </mxGeometry>
        </mxCell>
        <mxCell id="axzk1cwQ1PHnHN5oCvma-11" value="" style="endArrow=none;html=1;rounded=0;exitX=1;exitY=0.5;exitDx=0;exitDy=0;entryX=0;entryY=0.5;entryDx=0;entryDy=0;" parent="1" source="axzk1cwQ1PHnHN5oCvma-1" target="axzk1cwQ1PHnHN5oCvma-5" edge="1">
          <mxGeometry width="50" height="50" relative="1" as="geometry">
            <mxPoint x="640" y="150" as="sourcePoint" />
            <mxPoint x="700" y="60" as="targetPoint" />
          </mxGeometry>
        </mxCell>
        <mxCell id="axzk1cwQ1PHnHN5oCvma-12" value="" style="endArrow=none;html=1;rounded=0;entryX=0;entryY=0.5;entryDx=0;entryDy=0;exitX=1;exitY=0.5;exitDx=0;exitDy=0;" parent="1" source="axzk1cwQ1PHnHN5oCvma-1" target="axzk1cwQ1PHnHN5oCvma-6" edge="1">
          <mxGeometry width="50" height="50" relative="1" as="geometry">
            <mxPoint x="610" y="120" as="sourcePoint" />
            <mxPoint x="710" y="70" as="targetPoint" />
          </mxGeometry>
        </mxCell>
        <mxCell id="axzk1cwQ1PHnHN5oCvma-13" value="girokonto" style="rounded=0;whiteSpace=wrap;html=1;" parent="1" vertex="1">
          <mxGeometry x="370" y="440" width="120" height="60" as="geometry" />
        </mxCell>
        <mxCell id="axzk1cwQ1PHnHN5oCvma-14" value="sparkonto" style="rounded=0;whiteSpace=wrap;html=1;" parent="1" vertex="1">
          <mxGeometry x="610" y="440" width="120" height="60" as="geometry" />
        </mxCell>
        <mxCell id="axzk1cwQ1PHnHN5oCvma-15" value="kontoNr" style="ellipse;whiteSpace=wrap;html=1;" parent="1" vertex="1">
          <mxGeometry x="790" y="320" width="90" height="40" as="geometry" />
        </mxCell>
        <mxCell id="axzk1cwQ1PHnHN5oCvma-16" value="kontostand" style="ellipse;whiteSpace=wrap;html=1;" parent="1" vertex="1">
          <mxGeometry x="790" y="370" width="90" height="40" as="geometry" />
        </mxCell>
        <mxCell id="axzk1cwQ1PHnHN5oCvma-17" value="kontoAktiv" style="ellipse;whiteSpace=wrap;html=1;" parent="1" vertex="1">
          <mxGeometry x="790" y="420" width="90" height="40" as="geometry" />
        </mxCell>
        <mxCell id="axzk1cwQ1PHnHN5oCvma-18" value="summeEinzahl." style="ellipse;whiteSpace=wrap;html=1;" parent="1" vertex="1">
          <mxGeometry x="790" y="470" width="90" height="40" as="geometry" />
        </mxCell>
        <mxCell id="axzk1cwQ1PHnHN5oCvma-19" value="summeAuszahl," style="ellipse;whiteSpace=wrap;html=1;" parent="1" vertex="1">
          <mxGeometry x="790" y="520" width="90" height="40" as="geometry" />
        </mxCell>
        <mxCell id="axzk1cwQ1PHnHN5oCvma-20" value="zinssatz" style="ellipse;whiteSpace=wrap;html=1;" parent="1" vertex="1">
          <mxGeometry x="790" y="570" width="90" height="40" as="geometry" />
        </mxCell>
        <mxCell id="axzk1cwQ1PHnHN5oCvma-21" value="" style="endArrow=none;html=1;rounded=0;exitX=1;exitY=0.5;exitDx=0;exitDy=0;entryX=0;entryY=0.5;entryDx=0;entryDy=0;" parent="1" source="axzk1cwQ1PHnHN5oCvma-14" target="axzk1cwQ1PHnHN5oCvma-15" edge="1">
          <mxGeometry width="50" height="50" relative="1" as="geometry">
            <mxPoint x="620" y="130" as="sourcePoint" />
            <mxPoint x="680" y="40" as="targetPoint" />
          </mxGeometry>
        </mxCell>
        <mxCell id="axzk1cwQ1PHnHN5oCvma-22" value="" style="endArrow=none;html=1;rounded=0;exitX=1;exitY=0.5;exitDx=0;exitDy=0;entryX=0;entryY=0.5;entryDx=0;entryDy=0;" parent="1" source="axzk1cwQ1PHnHN5oCvma-14" target="axzk1cwQ1PHnHN5oCvma-16" edge="1">
          <mxGeometry width="50" height="50" relative="1" as="geometry">
            <mxPoint x="710" y="450" as="sourcePoint" />
            <mxPoint x="740" y="320" as="targetPoint" />
          </mxGeometry>
        </mxCell>
        <mxCell id="axzk1cwQ1PHnHN5oCvma-23" value="" style="endArrow=none;html=1;rounded=0;exitX=1;exitY=0.5;exitDx=0;exitDy=0;entryX=0;entryY=0.5;entryDx=0;entryDy=0;" parent="1" source="axzk1cwQ1PHnHN5oCvma-14" target="axzk1cwQ1PHnHN5oCvma-17" edge="1">
          <mxGeometry width="50" height="50" relative="1" as="geometry">
            <mxPoint x="720" y="460" as="sourcePoint" />
            <mxPoint x="750" y="330" as="targetPoint" />
          </mxGeometry>
        </mxCell>
        <mxCell id="axzk1cwQ1PHnHN5oCvma-24" value="" style="endArrow=none;html=1;rounded=0;exitX=1;exitY=0.5;exitDx=0;exitDy=0;entryX=0;entryY=0.5;entryDx=0;entryDy=0;" parent="1" source="axzk1cwQ1PHnHN5oCvma-14" target="axzk1cwQ1PHnHN5oCvma-18" edge="1">
          <mxGeometry width="50" height="50" relative="1" as="geometry">
            <mxPoint x="730" y="470" as="sourcePoint" />
            <mxPoint x="760" y="340" as="targetPoint" />
          </mxGeometry>
        </mxCell>
        <mxCell id="axzk1cwQ1PHnHN5oCvma-25" value="" style="endArrow=none;html=1;rounded=0;exitX=1;exitY=0.5;exitDx=0;exitDy=0;entryX=0;entryY=0.5;entryDx=0;entryDy=0;" parent="1" source="axzk1cwQ1PHnHN5oCvma-14" target="axzk1cwQ1PHnHN5oCvma-19" edge="1">
          <mxGeometry width="50" height="50" relative="1" as="geometry">
            <mxPoint x="740" y="480" as="sourcePoint" />
            <mxPoint x="770" y="350" as="targetPoint" />
          </mxGeometry>
        </mxCell>
        <mxCell id="axzk1cwQ1PHnHN5oCvma-26" value="" style="endArrow=none;html=1;rounded=0;exitX=1;exitY=0.5;exitDx=0;exitDy=0;entryX=0;entryY=0.5;entryDx=0;entryDy=0;" parent="1" source="axzk1cwQ1PHnHN5oCvma-14" target="axzk1cwQ1PHnHN5oCvma-20" edge="1">
          <mxGeometry width="50" height="50" relative="1" as="geometry">
            <mxPoint x="750" y="490" as="sourcePoint" />
            <mxPoint x="780" y="360" as="targetPoint" />
          </mxGeometry>
        </mxCell>
        <mxCell id="axzk1cwQ1PHnHN5oCvma-27" value="kontoNr" style="ellipse;whiteSpace=wrap;html=1;" parent="1" vertex="1">
          <mxGeometry x="210" y="250" width="90" height="40" as="geometry" />
        </mxCell>
        <mxCell id="axzk1cwQ1PHnHN5oCvma-28" value="kontostand" style="ellipse;whiteSpace=wrap;html=1;" parent="1" vertex="1">
          <mxGeometry x="210" y="300" width="90" height="40" as="geometry" />
        </mxCell>
        <mxCell id="axzk1cwQ1PHnHN5oCvma-29" value="kontoAktiv" style="ellipse;whiteSpace=wrap;html=1;" parent="1" vertex="1">
          <mxGeometry x="210" y="350" width="90" height="40" as="geometry" />
        </mxCell>
        <mxCell id="axzk1cwQ1PHnHN5oCvma-30" value="summeEinzahl." style="ellipse;whiteSpace=wrap;html=1;" parent="1" vertex="1">
          <mxGeometry x="210" y="400" width="90" height="40" as="geometry" />
        </mxCell>
        <mxCell id="axzk1cwQ1PHnHN5oCvma-31" value="summeAuszahl." style="ellipse;whiteSpace=wrap;html=1;" parent="1" vertex="1">
          <mxGeometry x="210" y="450" width="90" height="40" as="geometry" />
        </mxCell>
        <mxCell id="axzk1cwQ1PHnHN5oCvma-32" value="ueberzieh.Limit" style="ellipse;whiteSpace=wrap;html=1;" parent="1" vertex="1">
          <mxGeometry x="210" y="500" width="90" height="40" as="geometry" />
        </mxCell>
        <mxCell id="axzk1cwQ1PHnHN5oCvma-33" value="negativZinssatz" style="ellipse;whiteSpace=wrap;html=1;" parent="1" vertex="1">
          <mxGeometry x="210" y="550" width="90" height="40" as="geometry" />
        </mxCell>
        <mxCell id="axzk1cwQ1PHnHN5oCvma-34" value="positivZinssatz" style="ellipse;whiteSpace=wrap;html=1;" parent="1" vertex="1">
          <mxGeometry x="210" y="600" width="90" height="40" as="geometry" />
        </mxCell>
        <mxCell id="axzk1cwQ1PHnHN5oCvma-35" value="spesen" style="ellipse;whiteSpace=wrap;html=1;" parent="1" vertex="1">
          <mxGeometry x="210" y="650" width="90" height="40" as="geometry" />
        </mxCell>
        <mxCell id="axzk1cwQ1PHnHN5oCvma-37" value="" style="endArrow=none;html=1;rounded=0;exitX=1;exitY=0.5;exitDx=0;exitDy=0;entryX=0;entryY=0.5;entryDx=0;entryDy=0;" parent="1" source="axzk1cwQ1PHnHN5oCvma-27" target="axzk1cwQ1PHnHN5oCvma-13" edge="1">
          <mxGeometry width="50" height="50" relative="1" as="geometry">
            <mxPoint x="740" y="450" as="sourcePoint" />
            <mxPoint x="790" y="570" as="targetPoint" />
          </mxGeometry>
        </mxCell>
        <mxCell id="axzk1cwQ1PHnHN5oCvma-38" value="" style="endArrow=none;html=1;rounded=0;exitX=1;exitY=0.5;exitDx=0;exitDy=0;entryX=0;entryY=0.5;entryDx=0;entryDy=0;" parent="1" source="axzk1cwQ1PHnHN5oCvma-28" target="axzk1cwQ1PHnHN5oCvma-13" edge="1">
          <mxGeometry width="50" height="50" relative="1" as="geometry">
            <mxPoint x="310" y="250" as="sourcePoint" />
            <mxPoint x="370" y="440" as="targetPoint" />
          </mxGeometry>
        </mxCell>
        <mxCell id="axzk1cwQ1PHnHN5oCvma-39" value="" style="endArrow=none;html=1;rounded=0;exitX=1;exitY=0.5;exitDx=0;exitDy=0;entryX=0;entryY=0.5;entryDx=0;entryDy=0;" parent="1" source="axzk1cwQ1PHnHN5oCvma-29" target="axzk1cwQ1PHnHN5oCvma-13" edge="1">
          <mxGeometry width="50" height="50" relative="1" as="geometry">
            <mxPoint x="320" y="260" as="sourcePoint" />
            <mxPoint x="390" y="460" as="targetPoint" />
          </mxGeometry>
        </mxCell>
        <mxCell id="axzk1cwQ1PHnHN5oCvma-40" value="" style="endArrow=none;html=1;rounded=0;exitX=1;exitY=0.5;exitDx=0;exitDy=0;entryX=0;entryY=0.5;entryDx=0;entryDy=0;" parent="1" source="axzk1cwQ1PHnHN5oCvma-30" target="axzk1cwQ1PHnHN5oCvma-13" edge="1">
          <mxGeometry width="50" height="50" relative="1" as="geometry">
            <mxPoint x="330" y="270" as="sourcePoint" />
            <mxPoint x="400" y="470" as="targetPoint" />
          </mxGeometry>
        </mxCell>
        <mxCell id="axzk1cwQ1PHnHN5oCvma-41" value="" style="endArrow=none;html=1;rounded=0;exitX=1;exitY=0.5;exitDx=0;exitDy=0;entryX=0;entryY=0.5;entryDx=0;entryDy=0;" parent="1" source="axzk1cwQ1PHnHN5oCvma-31" target="axzk1cwQ1PHnHN5oCvma-13" edge="1">
          <mxGeometry width="50" height="50" relative="1" as="geometry">
            <mxPoint x="340" y="280" as="sourcePoint" />
            <mxPoint x="410" y="480" as="targetPoint" />
          </mxGeometry>
        </mxCell>
        <mxCell id="axzk1cwQ1PHnHN5oCvma-42" value="" style="endArrow=none;html=1;rounded=0;exitX=1;exitY=0.5;exitDx=0;exitDy=0;entryX=0;entryY=0.5;entryDx=0;entryDy=0;" parent="1" source="axzk1cwQ1PHnHN5oCvma-32" target="axzk1cwQ1PHnHN5oCvma-13" edge="1">
          <mxGeometry width="50" height="50" relative="1" as="geometry">
            <mxPoint x="350" y="290" as="sourcePoint" />
            <mxPoint x="420" y="490" as="targetPoint" />
          </mxGeometry>
        </mxCell>
        <mxCell id="axzk1cwQ1PHnHN5oCvma-43" value="" style="endArrow=none;html=1;rounded=0;exitX=1;exitY=0.5;exitDx=0;exitDy=0;entryX=0;entryY=0.5;entryDx=0;entryDy=0;" parent="1" source="axzk1cwQ1PHnHN5oCvma-33" target="axzk1cwQ1PHnHN5oCvma-13" edge="1">
          <mxGeometry width="50" height="50" relative="1" as="geometry">
            <mxPoint x="360" y="300" as="sourcePoint" />
            <mxPoint x="430" y="500" as="targetPoint" />
          </mxGeometry>
        </mxCell>
        <mxCell id="axzk1cwQ1PHnHN5oCvma-44" value="" style="endArrow=none;html=1;rounded=0;exitX=1;exitY=0.5;exitDx=0;exitDy=0;entryX=0;entryY=0.5;entryDx=0;entryDy=0;" parent="1" source="axzk1cwQ1PHnHN5oCvma-34" target="axzk1cwQ1PHnHN5oCvma-13" edge="1">
          <mxGeometry width="50" height="50" relative="1" as="geometry">
            <mxPoint x="370" y="310" as="sourcePoint" />
            <mxPoint x="440" y="510" as="targetPoint" />
          </mxGeometry>
        </mxCell>
        <mxCell id="axzk1cwQ1PHnHN5oCvma-45" value="" style="endArrow=none;html=1;rounded=0;exitX=1;exitY=0.5;exitDx=0;exitDy=0;entryX=0;entryY=0.5;entryDx=0;entryDy=0;" parent="1" source="axzk1cwQ1PHnHN5oCvma-35" target="axzk1cwQ1PHnHN5oCvma-13" edge="1">
          <mxGeometry width="50" height="50" relative="1" as="geometry">
            <mxPoint x="380" y="320" as="sourcePoint" />
            <mxPoint x="450" y="520" as="targetPoint" />
          </mxGeometry>
        </mxCell>
        <mxCell id="axzk1cwQ1PHnHN5oCvma-47" value="" style="endArrow=none;html=1;rounded=0;entryX=1;entryY=0;entryDx=0;entryDy=0;" parent="1" target="axzk1cwQ1PHnHN5oCvma-56" edge="1">
          <mxGeometry width="50" height="50" relative="1" as="geometry">
            <mxPoint x="430" y="280" as="sourcePoint" />
            <mxPoint x="510" y="150" as="targetPoint" />
            <Array as="points">
              <mxPoint x="430" y="220" />
              <mxPoint x="510" y="220" />
            </Array>
          </mxGeometry>
        </mxCell>
        <mxCell id="axzk1cwQ1PHnHN5oCvma-48" value="hat" style="rhombus;whiteSpace=wrap;html=1;" parent="1" vertex="1">
          <mxGeometry x="405" y="270" width="50" height="50" as="geometry" />
        </mxCell>
        <mxCell id="axzk1cwQ1PHnHN5oCvma-49" value="" style="endArrow=none;html=1;rounded=0;entryX=0.5;entryY=1;entryDx=0;entryDy=0;exitX=0.5;exitY=0;exitDx=0;exitDy=0;" parent="1" source="axzk1cwQ1PHnHN5oCvma-13" target="axzk1cwQ1PHnHN5oCvma-48" edge="1">
          <mxGeometry width="50" height="50" relative="1" as="geometry">
            <mxPoint x="610" y="360" as="sourcePoint" />
            <mxPoint x="660" y="310" as="targetPoint" />
          </mxGeometry>
        </mxCell>
        <mxCell id="axzk1cwQ1PHnHN5oCvma-50" value="" style="endArrow=none;html=1;rounded=0;entryX=0.75;entryY=1;entryDx=0;entryDy=0;exitX=0.5;exitY=0;exitDx=0;exitDy=0;" parent="1" source="axzk1cwQ1PHnHN5oCvma-53" target="axzk1cwQ1PHnHN5oCvma-1" edge="1">
          <mxGeometry width="50" height="50" relative="1" as="geometry">
            <mxPoint x="670" y="260" as="sourcePoint" />
            <mxPoint x="660" y="310" as="targetPoint" />
            <Array as="points">
              <mxPoint x="670" y="220" />
              <mxPoint x="580" y="220" />
            </Array>
          </mxGeometry>
        </mxCell>
        <mxCell id="axzk1cwQ1PHnHN5oCvma-53" value="hat" style="rhombus;whiteSpace=wrap;html=1;" parent="1" vertex="1">
          <mxGeometry x="645" y="270" width="50" height="50" as="geometry" />
        </mxCell>
        <mxCell id="axzk1cwQ1PHnHN5oCvma-54" value="" style="endArrow=none;html=1;rounded=0;entryX=0.5;entryY=1;entryDx=0;entryDy=0;exitX=0.5;exitY=0;exitDx=0;exitDy=0;" parent="1" source="axzk1cwQ1PHnHN5oCvma-14" target="axzk1cwQ1PHnHN5oCvma-53" edge="1">
          <mxGeometry width="50" height="50" relative="1" as="geometry">
            <mxPoint x="610" y="360" as="sourcePoint" />
            <mxPoint x="660" y="310" as="targetPoint" />
          </mxGeometry>
        </mxCell>
        <mxCell id="axzk1cwQ1PHnHN5oCvma-55" value="n" style="text;html=1;strokeColor=none;fillColor=none;align=center;verticalAlign=middle;whiteSpace=wrap;rounded=0;" parent="1" vertex="1">
          <mxGeometry x="380" y="380" width="60" height="30" as="geometry" />
        </mxCell>
        <mxCell id="axzk1cwQ1PHnHN5oCvma-56" value="1" style="text;html=1;strokeColor=none;fillColor=none;align=center;verticalAlign=middle;whiteSpace=wrap;rounded=0;" parent="1" vertex="1">
          <mxGeometry x="450" y="165" width="60" height="30" as="geometry" />
        </mxCell>
        <mxCell id="axzk1cwQ1PHnHN5oCvma-57" value="n" style="text;html=1;strokeColor=none;fillColor=none;align=center;verticalAlign=middle;whiteSpace=wrap;rounded=0;" parent="1" vertex="1">
          <mxGeometry x="670" y="380" width="60" height="30" as="geometry" />
        </mxCell>
        <mxCell id="axzk1cwQ1PHnHN5oCvma-58" value="1" style="text;html=1;strokeColor=none;fillColor=none;align=center;verticalAlign=middle;whiteSpace=wrap;rounded=0;" parent="1" vertex="1">
          <mxGeometry x="570" y="165" width="60" height="30" as="geometry" />
        </mxCell>
        <mxCell id="n0hLGrx1aKk031c7QKuc-1" value="identifikationsNr" style="ellipse;whiteSpace=wrap;html=1;" parent="1" vertex="1">
          <mxGeometry x="730" y="150" width="90" height="40" as="geometry" />
        </mxCell>
        <mxCell id="n0hLGrx1aKk031c7QKuc-2" value="" style="endArrow=none;html=1;rounded=0;entryX=0;entryY=0.5;entryDx=0;entryDy=0;exitX=1;exitY=0.5;exitDx=0;exitDy=0;" parent="1" source="axzk1cwQ1PHnHN5oCvma-1" target="n0hLGrx1aKk031c7QKuc-1" edge="1">
          <mxGeometry width="50" height="50" relative="1" as="geometry">
            <mxPoint x="610" y="140" as="sourcePoint" />
            <mxPoint x="740" y="230" as="targetPoint" />
          </mxGeometry>
        </mxCell>
        <mxCell id="n0hLGrx1aKk031c7QKuc-3" value="ort" style="ellipse;whiteSpace=wrap;html=1;" parent="1" vertex="1">
          <mxGeometry x="730" y="100" width="90" height="40" as="geometry" />
        </mxCell>
      </root>
    </mxGraphModel>
  </diagram>
</mxfile>
